D:\school\WTK\thesis\model\3dpredictsim\Results\debug_batch\Pog_s1_tmt_bCst_d00_k500_ig24_act_TTC_GRF.mot
nRows=10
nColumns=19

name D:\school\WTK\thesis\model\3dpredictsim\Results\debug_batch\Pog_s1_tmt_bCst_d00_k500_ig24_act_TTC_GRF.mot
datacolumns 19
datarows 10
range 0.0000000000 0.1217292013
endheader
time 	ground_force_vx	ground_force_vy	ground_force_vz	ground_force_px	ground_force_py	ground_force_pz	1_ground_force_vx	1_ground_force_vy	1_ground_force_vz	1_ground_force_px	1_ground_force_py	1_ground_force_pz	ground_torque_x	ground_torque_y	ground_torque_z	1_ground_torque_x	1_ground_torque_y	1_ground_torque_z
        0.0000000000	      -95.6807511192	       99.0564523108	       35.4405722959	        0.2222528072	        0.0000000000	        0.0498503866	       76.4765538991	      335.3571745875	       -4.9734746449	       -0.3974830481	        0.0000000000	       -0.0305467038	        0.0000000000	        0.0000000000	        0.0000000000	        0.0000000000	        0.0000000000	        0.0000000000	
        0.0135254668	      -59.1296986611	      333.4862009607	        8.1481919157	        0.2273510579	        0.0000000000	        0.0479703746	       42.8097101869	      232.2285052832	      -12.4135460824	       -0.3836748357	        0.0000000000	       -0.0250547397	        0.0000000000	        0.0000000000	        0.0000000000	        0.0000000000	        0.0000000000	        0.0000000000	
        0.0270509336	      -82.0786996660	      576.3777253093	       -8.9134498884	        0.2298765106	        0.0000000000	        0.0477994722	       29.3897465688	      192.3166958316	      -14.4261275097	       -0.3813085169	        0.0000000000	       -0.0239991527	        0.0000000000	        0.0000000000	        0.0000000000	        0.0000000000	        0.0000000000	        0.0000000000	
        0.0405764004	     -138.7253118125	      784.3356940468	      -17.6217446619	        0.2383058284	        0.0000000000	        0.0495966846	       22.3357524004	      143.7214475145	      -14.6135130629	       -0.3810326710	        0.0000000000	       -0.0241013442	        0.0000000000	        0.0000000000	        0.0000000000	        0.0000000000	        0.0000000000	        0.0000000000	
        0.0541018672	     -175.1419812709	      901.2683713767	      -19.0552562405	        0.2475344886	        0.0000000000	        0.0517468768	        4.2138866721	       75.3861296259	      -16.3517551218	       -0.3814760389	        0.0000000000	       -0.0248971993	        0.0000000000	        0.0000000000	        0.0000000000	        0.0000000000	        0.0000000000	        0.0000000000	
        0.0676273341	     -168.0219644580	      902.2261453924	      -20.0807882467	        0.2534921424	        0.0000000000	        0.0528791627	      -15.1763435162	       17.9037091759	       -5.4089973436	       -0.3868476511	        0.0000000000	       -0.0246922339	        0.0000000000	        0.0000000000	        0.0000000000	        0.0000000000	        0.0000000000	        0.0000000000	
        0.0811528009	     -149.3362549204	      845.6657494352	      -17.8238558340	        0.2577127706	        0.0000000000	        0.0535464446	      -15.0707400578	       12.1439777270	        0.7897477982	       -0.3777506714	        0.0000000000	       -0.0222997064	        0.0000000000	        0.0000000000	        0.0000000000	        0.0000000000	        0.0000000000	        0.0000000000	
        0.0946782677	     -129.9622354483	      789.7356152404	      -16.9678656759	        0.2615023151	        0.0000000000	        0.0538505769	      -18.8116849383	       12.8564183229	        0.9053163965	       -0.3600407357	        0.0000000000	       -0.0236216952	        0.0000000000	        0.0000000000	        0.0000000000	        0.0000000000	        0.0000000000	        0.0000000000	
        0.1082037345	     -114.5684131188	      745.3179263759	      -17.9651323596	        0.2655819429	        0.0000000000	        0.0538668441	      -20.3998785551	       12.3865376789	        1.4554206388	       -0.3367440085	        0.0000000000	       -0.0251831963	        0.0000000000	        0.0000000000	        0.0000000000	        0.0000000000	        0.0000000000	        0.0000000000	
        0.1217292013	     -101.6754689994	      713.0755525537	      -18.0239239338	        0.2700800755	        0.0000000000	        0.0537438822	      -16.7910775771	        9.2773682732	        1.3984650265	        0.0000000000	        0.0000000000	        0.0000000000	        0.0000000000	        0.0000000000	        0.0000000000	        0.0000000000	        0.0000000000	        0.0000000000	
